<svg width="450" height="545" viewBox="0 0 450 545" fill="none" xmlns="http://www.w3.org/2000/svg">
<path d="M0 0H450V545H0V0Z" fill="#F4F4F4"/>
<path d="M405 273C405 372.411 324.411 453 225 453C125.589 453 45 372.411 45 273C45 173.589 125.589 93 225 93C324.411 93 405 173.589 405 273Z" fill="#D9D9D9"/>
<path d="M300 273C300 314.421 266.421 348 225 348C183.579 348 150 314.421 150 273C150 231.579 183.579 198 225 198C266.421 198 300 231.579 300 273Z" fill="white"/>
<path d="M45.171 265H150.422L150 273L150.422 281L151.5 288L153.278 295H46.3242L45.5 287.5L45 280V272.5L45.171 265Z" fill="white"/>
<path d="M404.829 265H299.578L300 273L299.63 280.5L298.5 287.999L296.722 295H403.676L404.5 287.5L405 280V272.5L404.829 265Z" fill="white"/>
</svg>
