<svg width="1076" height="899" viewBox="0 0 1076 899" fill="none" xmlns="http://www.w3.org/2000/svg">
<path d="M555.833 73.7001C555.936 65.0354 562.903 58.04 571.569 58.0111C600.984 57.9128 665.355 58.3658 704.857 63.6375C757.332 70.6405 778.069 111.905 833.66 124.664C878.946 135.058 952.368 133.296 956.986 133.174C957.141 133.17 957.293 133.168 957.448 133.168H1052.06C1060.83 133.168 1067.96 140.228 1068.06 148.998L1075.83 882.831C1075.92 891.733 1068.73 899 1059.83 899H562.192C553.281 899 546.087 891.72 546.193 882.809L555.833 73.7001Z" fill="#FF4F4F"/>
<path d="M0 80C0 35.8172 35.8172 0 80 0H562C566.418 0 570 3.58172 570 8V899H40C17.9086 899 0 881.091 0 859V80Z" fill="#FF4F4F"/>
<path d="M529 0H562C566.418 0 570 3.58172 570 8V899H529V0Z" fill="#FF4F4F"/>
<path fill-rule="evenodd" clip-rule="evenodd" d="M529 899H536V0H529V899Z" fill="#CF4848"/>
<path d="M570 899H554C549.582 899 546 895.418 546 891V0H563C566.866 0 570 3.13401 570 7V899Z" fill="#FF4F4F"/>
<path fill-rule="evenodd" clip-rule="evenodd" d="M563 899H570V7C570 3.13401 566.866 0 563 0V899Z" fill="#CF4848"/>
</svg>
